<svg width="20" height="20" viewBox="0 0 20 20" fill="none" xmlns="http://www.w3.org/2000/svg">
<g clip-path="url(#clip0_483_289)">
<path d="M11.7847 10L19.87 1.91518C20.044 1.74093 20.044 1.45861 19.87 1.28437L18.7169 0.130628C18.6332 0.0471947 18.5195 0 18.4013 0C18.2828 0 18.1693 0.0471947 18.0856 0.130628L10.0006 8.21566L1.91557 0.130628C1.74807 -0.0368708 1.45163 -0.0366601 1.28456 0.130628L0.131657 1.28437C-0.0425837 1.45861 -0.0425837 1.74093 0.131657 1.91518L8.21669 10L0.131657 18.0848C-0.0425837 18.2591 -0.0425837 18.5414 0.131657 18.7156L1.28477 19.8694C1.36841 19.9528 1.48197 20 1.60038 20C1.71879 20 1.83214 19.9528 1.91578 19.8694L10.0008 11.7843L18.0859 19.8694C18.1695 19.9528 18.2833 20 18.4015 20C18.5197 20 18.6334 19.9528 18.7171 19.8694L19.8702 18.7156C20.0442 18.5414 20.0442 18.2591 19.8702 18.0848L11.7847 10Z" fill="black"/>
</g>
<defs>
<clipPath id="clip0_483_289">
<rect width="20" height="20" fill="white"/>
</clipPath>
</defs>
</svg>
